<?xml version="1.0" encoding="UTF-8"?>
<svg version="1.1" xmlns="http://www.w3.org/2000/svg" width="24px" height="24px">
<path d="M0 0 C7.96332212 7.20502298 15.08747552 14.98870492 21.64599609 23.48925781 C22.28770752 24.31635254 22.28770752 24.31635254 22.94238281 25.16015625 C58.10600085 70.77029387 73.03967998 127.64761574 66.12451172 184.69775391 C58.74233639 239.17788266 30.39818417 290.73267406 -13.35400391 324.48925781 C-13.90540039 324.91706543 -14.45679688 325.34487305 -15.02490234 325.78564453 C-60.63503996 360.94926257 -117.51236183 375.8829417 -174.5625 368.96777344 C-229.04262876 361.5855981 -280.59742015 333.24144589 -314.35400391 289.48925781 C-314.78181152 288.93786133 -315.20961914 288.38646484 -315.65039062 287.81835938 C-350.82141305 242.19861764 -365.72639347 185.34531561 -358.8347168 128.28735352 C-351.48300338 73.90743246 -323.00920507 22.17101224 -279.35400391 -11.51074219 C-278.80260742 -11.9385498 -278.25121094 -12.36635742 -277.68310547 -12.80712891 C-203.08236705 -70.32135728 -94.38570286 -73.34116984 0 0 Z M-271.67431641 40.56738281 C-303.81770875 75.61586309 -317.78425062 120.1013938 -316.50634766 167.08349609 C-315.85516675 181.64114615 -312.83435927 195.6578944 -308.35400391 209.48925781 C-308.14437012 210.14667969 -307.93473633 210.80410156 -307.71875 211.48144531 C-301.95791292 229.14978629 -292.92679078 245.96021028 -281.35400391 260.48925781 C-280.69682373 261.31562744 -280.69682373 261.31562744 -280.02636719 262.15869141 C-251.55789995 297.55718524 -211.34814093 320.23689581 -166.19384766 326.07910156 C-148.12367489 327.91307176 -129.10680205 327.32525163 -111.35400391 323.48925781 C-110.57057617 323.32296875 -109.78714844 323.15667969 -108.97998047 322.98535156 C-66.95811176 313.74977602 -28.16412712 287.23909468 -4.53369141 251.26269531 C19.93692493 212.89922081 30.42855047 166.45786983 20.64599609 121.48925781 C9.88099431 75.8187999 -16.7491498 36.07791094 -56.89746094 11.19921875 C-127.28738244 -30.87715728 -214.89962746 -17.68838498 -271.67431641 40.56738281 Z " fill="#7F00FF" transform="translate(402.35400390625,99.5107421875)"/>
<path d="M0 0 C7.08931578 5.77081679 13.50814993 12.37118517 19.9453125 18.84765625 C20.84120087 19.74495956 21.73708923 20.64226288 22.66012573 21.5667572 C25.00613793 23.91737063 27.34996505 26.27013269 29.69268799 28.62402344 C32.09794066 31.03962812 34.50613667 33.45229486 36.9140625 35.86523438 C41.61204616 40.57416562 46.30715385 45.28594906 51 50 C54.58610941 48.4818928 56.84773636 46.37828353 59.56567383 43.61376953 C60.46373245 42.70587677 61.36179108 41.79798401 62.2870636 40.86257935 C62.76256464 40.37721836 63.23806568 39.89185738 63.72797585 39.39178848 C65.22472191 37.86476397 66.72814607 36.34461223 68.23356628 34.82614136 C72.51143249 30.50862827 76.77654052 26.17859174 81.03833008 21.84521484 C83.64954848 19.19107821 86.26819981 16.5444543 88.89124107 13.90200424 C89.88485577 12.89787925 90.87554901 11.89085402 91.8631382 10.88080215 C99.11546332 3.4638408 105.05375904 -2.53691727 115.75 -3.25 C121.64741081 -3.15116071 126.23991761 -1.48006929 130.75 2.3125 C135.92895661 8.49847595 138.39389837 12.75054471 138.19921875 20.8671875 C137.01340763 33.56234182 124.63205306 42.51707023 116.15234375 50.9453125 C115.25504044 51.84120087 114.35773712 52.73708923 113.4332428 53.66012573 C111.08262937 56.00613793 108.72986731 58.34996505 106.37597656 60.69268799 C103.96037188 63.09794066 101.54770514 65.50613667 99.13476562 67.9140625 C94.42583438 72.61204616 89.71405094 77.30715385 85 82 C86.5181072 85.58610941 88.62171647 87.84773636 91.38623047 90.56567383 C92.29412323 91.46373245 93.20201599 92.36179108 94.13742065 93.2870636 C94.62278164 93.76256464 95.10814262 94.23806568 95.60821152 94.72797585 C97.13523603 96.22472191 98.65538777 97.72814607 100.17385864 99.23356628 C104.49137173 103.51143249 108.82140826 107.77654052 113.15478516 112.03833008 C115.80892179 114.64954848 118.4555457 117.26819981 121.09799576 119.89124107 C122.10212075 120.88485577 123.10914598 121.87554901 124.11919785 122.8631382 C131.5361592 130.11546332 137.53691727 136.05375904 138.25 146.75 C138.15116071 152.64741081 136.48006929 157.23991761 132.6875 161.75 C126.50152405 166.92895661 122.24945529 169.39389837 114.1328125 169.19921875 C101.43765818 168.01340763 92.48292977 155.63205306 84.0546875 147.15234375 C83.15879913 146.25504044 82.26291077 145.35773712 81.33987427 144.4332428 C78.99386207 142.08262937 76.65003495 139.72986731 74.30731201 137.37597656 C71.90205934 134.96037188 69.49386333 132.54770514 67.0859375 130.13476562 C62.38795384 125.42583438 57.69284615 120.71405094 53 116 C49.41389059 117.5181072 47.15226364 119.62171647 44.43432617 122.38623047 C43.53626755 123.29412323 42.63820892 124.20201599 41.7129364 125.13742065 C41.23743536 125.62278164 40.76193432 126.10814262 40.27202415 126.60821152 C38.77527809 128.13523603 37.27185393 129.65538777 35.76643372 131.17385864 C31.48856751 135.49137173 27.22345948 139.82140826 22.96166992 144.15478516 C20.35045152 146.80892179 17.73180019 149.4555457 15.10875893 152.09799576 C14.11514423 153.10212075 13.12445099 154.10914598 12.1368618 155.11919785 C4.88453668 162.5361592 -1.05375904 168.53691727 -11.75 169.25 C-17.64741081 169.15116071 -22.23991761 167.48006929 -26.75 163.6875 C-31.92895661 157.50152405 -34.39389837 153.24945529 -34.19921875 145.1328125 C-33.01340763 132.43765818 -20.63205306 123.48292977 -12.15234375 115.0546875 C-11.25504044 114.15879913 -10.35773712 113.26291077 -9.4332428 112.33987427 C-7.08262937 109.99386207 -4.72986731 107.65003495 -2.37597656 105.30731201 C0.03962812 102.90205934 2.45229486 100.49386333 4.86523438 98.0859375 C9.57416562 93.38795384 14.28594906 88.69284615 19 84 C17.4818928 80.41389059 15.37828353 78.15226364 12.61376953 75.43432617 C11.70587677 74.53626755 10.79798401 73.63820892 9.86257935 72.7129364 C9.37721836 72.23743536 8.89185738 71.76193432 8.39178848 71.27202415 C6.86476397 69.77527809 5.34461223 68.27185393 3.82614136 66.76643372 C-0.49137173 62.48856751 -4.82140826 58.22345948 -9.15478516 53.96166992 C-11.80892179 51.35045152 -14.4555457 48.73180019 -17.09799576 46.10875893 C-18.10212075 45.11514423 -19.10914598 44.12445099 -20.11919785 43.1368618 C-27.5361592 35.88453668 -33.53691727 29.94624096 -34.25 19.25 C-34.15116071 13.35258919 -32.48006929 8.76008239 -28.6875 4.25 C-19.97533261 -3.04390759 -10.5193105 -6.09945963 0 0 Z " fill="#7F00FF" transform="translate(204,173)"/>
</svg>
