<?xml version="1.0" encoding="UTF-8"?>
<svg version="1.1" xmlns="http://www.w3.org/2000/svg" width="512" height="512">
<path d="M0 0 C1.25522461 0.01498535 2.51044922 0.0299707 3.80371094 0.04541016 C13.25720857 0.26432039 21.59784085 1.14608839 30.5 4.5 C31.80469238 4.98388184 31.80469238 4.98388184 33.13574219 5.47753906 C49.22725628 11.56695545 65.150643 18.933762 79.5 28.5 C85.34112515 28.12704014 91.04578505 27.09468575 96.80737305 26.09082031 C136.75518995 19.2108302 175.89206633 20.74010483 215.59106445 28.07275391 C221.95012519 29.00673261 225.16090806 27.8371516 230.5625 24.5 C254.70164589 10.34481385 286.3534357 0.26055904 314.3125 7.3125 C318.91030944 8.5357704 322.45931237 10.03891801 326.5 12.5 C327.49 12.5 328.48 12.5 329.5 12.5 C332.77079043 19.96651751 335.09115082 27.28736716 336.75 35.25 C336.91274414 36.02899658 337.07548828 36.80799316 337.24316406 37.6105957 C339.00948825 46.48628102 339.71122705 55.20504636 339.75 64.25 C339.76047363 65.24644531 339.77094727 66.24289063 339.78173828 67.26953125 C339.76543311 73.33889144 339.14801158 78.91184338 337.91381836 84.84667969 C335.93912505 94.41441833 335.93912505 94.41441833 339.35888672 103.22314453 C340.71625529 105.03845664 342.11238152 106.81520789 343.52734375 108.5859375 C353.72723788 121.39324825 359.00110276 138.73076955 362.5 154.5 C362.69287598 155.36407471 362.88575195 156.22814941 363.08447266 157.1184082 C364.92427042 166.5508531 364.89720775 175.98972404 364.875 185.5625 C364.87418427 186.88334091 364.87418427 186.88334091 364.87335205 188.23086548 C364.75947443 228.47385022 355.35044598 268.47399254 328.5 299.5 C327.80390625 300.32886719 327.1078125 301.15773438 326.390625 302.01171875 C320.97808051 308.27837044 315.12651349 313.54289093 308.5 318.5 C307.97760742 318.89155273 307.45521484 319.28310547 306.91699219 319.68652344 C288.22130513 333.47223208 264.70593282 344.53536541 241.5 347.5 C241.76554687 348.23863281 242.03109375 348.97726562 242.3046875 349.73828125 C242.65789062 350.75277344 243.01109375 351.76726562 243.375 352.8125 C243.72304688 353.79863281 244.07109375 354.78476562 244.4296875 355.80078125 C246.87485735 364.25178798 247.79908059 372.48700253 247.79052734 381.26049805 C247.79724457 382.27337891 247.80396179 383.28625977 247.81088257 384.32983398 C247.82970796 387.6405136 247.83377785 390.95098913 247.8359375 394.26171875 C247.84237246 396.58095887 247.84910134 398.90019819 247.85610962 401.21943665 C247.86804095 406.06338383 247.87179434 410.90725988 247.87060547 415.7512207 C247.87040166 421.94832926 247.89778634 428.14498242 247.93214989 434.34198284 C247.95440754 439.1247415 247.95844347 443.90738994 247.95738602 448.69019508 C247.95974049 450.97508131 247.96855526 453.25997063 247.98405075 455.54480553 C248.00370213 458.73942358 247.99787712 461.93305068 247.98583984 465.12768555 C247.99707886 466.06346939 248.00831787 466.99925323 248.01989746 467.96339417 C247.95355578 474.91143089 246.33900457 480.21005735 241.75390625 485.5234375 C241.19574219 485.96945312 240.63757813 486.41546875 240.0625 486.875 C239.50691406 487.33648437 238.95132812 487.79796875 238.37890625 488.2734375 C232.67112794 491.99951316 227.12541481 492.11875282 220.5 491.5 C215.30789461 490.17291336 210.42684358 487.38969118 207.41668797 482.87535477 C204.40765677 477.33810198 203.93396962 472.74559915 204.00170898 466.51074219 C203.99343079 465.0602372 203.99343079 465.0602372 203.98498535 463.58042908 C203.97570034 461.49235814 203.97553107 459.40423055 203.98357964 457.31615448 C203.99626611 454.001846 203.9848659 450.68836355 203.96754456 447.37408447 C203.94087992 441.52613423 203.93524711 435.67838776 203.93664551 429.8303833 C203.93887565 420.48593887 203.92453109 411.14174779 203.88105965 401.79740143 C203.87128894 398.54926491 203.87990517 395.30153342 203.88975525 392.05340576 C203.87013422 373.81915152 201.49933822 360.80571284 189.38476562 346.77392578 C185.30217427 341.86669577 183.6860031 337.47426613 183.3828125 330.99609375 C184.33256392 322.92320668 187.38190754 318.10315678 193.42578125 312.76171875 C198.88513723 309.44086756 205.33735691 309.030753 211.54760742 308.20776367 C231.40968791 305.57418748 250.5262522 301.5770432 268.5 292.5 C269.56347656 291.96761719 270.62695312 291.43523437 271.72265625 290.88671875 C279.76406461 286.53917023 286.07967671 280.91097784 292.5 274.5 C293.16902344 273.84257812 293.83804687 273.18515625 294.52734375 272.5078125 C316.98298349 248.77917731 321.51182206 210.14102546 320.71875 179.1328125 C319.71495203 154.52972423 310.10413669 134.69609562 294 116.5 C289.63765225 111.2651827 289.01910706 106.75181045 289.1015625 100.09765625 C289.74036213 94.32967134 291.51512825 88.97947899 293.30859375 83.48046875 C297.58932214 69.89983348 296.10697189 55.01802077 292.5 41.5 C292.21382813 40.406875 291.92765625 39.31375 291.6328125 38.1875 C290.94450032 35.6178012 290.23563931 33.05647705 289.5 30.5 C288.84 30.5 288.18 30.5 287.5 30.5 C287.38914062 31.25023438 287.27828125 32.00046875 287.1640625 32.7734375 C283.75244216 46.78114925 259.66565135 57.881572 248.51953125 65.17675781 C246.71651209 66.35813642 244.92005238 67.54876155 243.125 68.7421875 C242.17625 69.36351563 241.2275 69.98484375 240.25 70.625 C239.46109375 71.14320312 238.6721875 71.66140625 237.859375 72.1953125 C228.36258886 77.44684656 220.0399661 75.09175979 210.0625 72.6875 C167.8464573 63.08087945 124.31135751 63.79593597 82.44604492 75.05224609 C74.59856139 76.85782692 68.16826339 74.77585975 61.515625 70.6484375 C59.78186574 69.52495126 58.05494799 68.39144923 56.32861328 67.2565918 C41.22995106 57.38226407 25.63028575 50.1023576 8.5 44.5 C5.9250024 60.24886927 5.2410575 76.03822982 11.1875 91.1875 C13.49489798 97.5297597 13.92879377 105.3362929 11.7265625 111.75390625 C10.48050645 113.87043408 9.10247151 115.63582733 7.5 117.5 C-13.39318814 141.86941327 -20.06855541 167.56861884 -17.94140625 199.375 C-15.54430537 229.59579947 -7.50477337 259.3497237 15.5 280.5 C38.15043804 298.97645268 67.35757905 306.10647704 95.85424805 309.33642578 C103.98397451 310.37110254 110.22172309 313.18927527 115.3125 319.71875 C118.79477202 324.94215803 119.11578017 330.41525696 118.5 336.5 C117.0108693 342.98835518 113.57677984 346.9504094 109.27612305 351.84887695 C103.48393638 358.59594848 99.38391996 366.82093815 99.36869812 375.83073425 C99.36468994 376.68988434 99.36068176 377.54903442 99.35655212 378.43421936 C99.35708084 379.36882492 99.35760956 380.30343048 99.3581543 381.26635742 C99.35467987 382.25710266 99.35120544 383.2478479 99.34762573 384.26861572 C99.34027549 386.42007575 99.3349262 388.57154333 99.33133507 390.72301292 C99.32416174 394.13256835 99.30848778 397.54198052 99.28999329 400.95149231 C99.23756976 410.64578266 99.18956631 420.33999482 99.17407227 430.03442383 C99.16397174 435.96548756 99.13459336 441.89619101 99.09275246 447.8271122 C99.08046635 450.0832172 99.07531681 452.33937314 99.07755089 454.59551048 C99.07991275 457.75961908 99.05766876 460.9227005 99.0300293 464.08666992 C99.03663071 465.01115433 99.04323212 465.93563873 99.05003357 466.88813782 C98.95116542 473.81298148 97.58542477 480.17270649 92.7501173 485.3870573 C86.84620001 490.81108645 81.41434468 491.97359676 73.50390625 491.80859375 C66.48550602 491.08758774 62.19084575 487.73892991 57.7265625 482.4765625 C54.23935396 476.8570481 54.22855341 471.33143984 54.3046875 464.9453125 C54.3075174 464.04376434 54.31034729 463.14221619 54.31326294 462.21334839 C54.32440561 459.35042724 54.3494992 456.48782566 54.375 453.625 C54.38503745 451.67708787 54.39416196 449.72917081 54.40234375 447.78125 C54.42432557 443.0207113 54.4588145 438.26040973 54.5 433.5 C53.82738632 433.56983093 53.15477264 433.63966187 52.46177673 433.71160889 C51.57196609 433.8025885 50.68215546 433.89356812 49.76538086 433.98730469 C48.88651718 434.07776062 48.0076535 434.16821655 47.10215759 434.26141357 C20.8681044 436.66675943 -6.79088853 431.0513265 -27.8125 414.5625 C-29.38882743 413.22445462 -30.95133778 411.86997042 -32.5 410.5 C-33.35335937 409.76652344 -34.20671875 409.03304688 -35.0859375 408.27734375 C-43.66561766 400.76690301 -50.57219415 392.19915613 -57.72607422 383.36962891 C-67.28077032 370.75500859 -67.28077032 370.75500859 -80.4375 362.6875 C-86.75571529 360.34318483 -90.76927428 356.12461749 -93.66015625 350.0703125 C-95.76709746 343.62209242 -95.22782816 337.2655577 -92.4375 331.125 C-89.35710924 325.60486956 -85.55913005 322.51971002 -79.5 320.5 C-69.65654821 319.58250116 -62.20036648 320.86377732 -53.5 325.5 C-52.18128906 326.17482422 -52.18128906 326.17482422 -50.8359375 326.86328125 C-36.92863959 334.80151767 -26.81917333 347.97118925 -17.42578125 360.61328125 C-7.19297997 374.3486072 4.95195728 387.44522621 22.5 390.5 C25.75635767 390.7426695 28.98629461 390.73765298 32.25 390.6875 C33.12237305 390.68105469 33.99474609 390.67460937 34.89355469 390.66796875 C41.45858848 390.59018975 47.97397391 390.24279972 54.5 389.5 C54.46519531 388.530625 54.43039063 387.56125 54.39453125 386.5625 C54.06121037 372.98693899 56.12825486 360.39819844 60.5 347.5 C59.37722656 347.39429688 58.25445312 347.28859375 57.09765625 347.1796875 C36.22388131 344.53326462 13.08638913 333.16272719 -3.5 320.5 C-4.39074219 319.82839844 -5.28148438 319.15679687 -6.19921875 318.46484375 C-37.67496805 293.72427619 -54.34559241 259.71548267 -60.5 220.5 C-60.61569336 219.81470215 -60.73138672 219.1294043 -60.85058594 218.42333984 C-64.33264336 197.20552107 -64.78797513 172.40207492 -59.5 151.5 C-59.33371094 150.81164062 -59.16742188 150.12328125 -58.99609375 149.4140625 C-54.25609314 130.24339338 -45.38356149 113.82534223 -34.5 97.5 C-34.50113896 94.77663091 -34.50113896 94.77663091 -34.9609375 91.72265625 C-35.10273437 90.56830078 -35.24453125 89.41394531 -35.390625 88.22460938 C-35.55046875 87.01611328 -35.7103125 85.80761719 -35.875 84.5625 C-37.39142098 72.86164148 -38.1111374 61.55932097 -36.75 49.8125 C-36.66274658 49.05557861 -36.57549316 48.29865723 -36.4855957 47.51879883 C-34.75565441 33.67209027 -32.23581096 14.23713087 -21.5 4.5 C-14.42453484 -0.01466226 -8.26658891 -0.12919996 0 0 Z " fill="#7B7B7B" transform="translate(115.5,-0.5)"/>
</svg>
